#tb 0: 1/1000
0,          0,          0,        0,    70560, bb903b926c4b34ae336e21d65ad8fd25
0,         33,         33,        0,    70560, c4c0bc3b112487e994d22176817ace3c
0,         66,         66,        0,    70560, 24e699f7a92ab1b0fe12e0b747470b5b
0,        100,        100,        0,    70560, 200f403694d3acfda63f52e8373f1420
0,        133,        133,        0,    70560, 6df417a8ec1810562301c89724b739d1
0,        166,        166,        0,    70560, 55757b633d8fe669fc0f507dab4fa9f7
0,        200,        200,        0,    70560, 45bc82bee02cb45422be3ac1019896d0
0,        233,        233,        0,    70560, 4aaf5d07d2796910767d5084556c9cf9
0,        266,        266,        0,    70560, f100fa26da47250b98d95a18915f521d
0,        300,        300,        0,    70560, f5a8def53b4638b6ce7c8588d595d0ad
